<svg xmlns="http://www.w3.org/2000/svg" version="1.1" xmlns:xlink="http://www.w3.org/1999/xlink" width="1000" height="1000"><metadata><rdf:RDF xmlns:rdf="http://www.w3.org/1999/02/22-rdf-syntax-ns#" xmlns:dc="http://purl.org/dc/elements/1.1/"><rdf:Description><dc:creator>RealFaviconGenerator</dc:creator><dc:source>https://realfavicongenerator.net</dc:source></rdf:Description></rdf:RDF></metadata><style>
    #light-icon {
      display: inline;
    }
    #dark-icon {
      display: none;
    }

    @media (prefers-color-scheme: dark) {
      #light-icon {
        display: none;
      }
      #dark-icon {
        display: inline;
      }
    }
  </style><g id="light-icon"><svg xmlns="http://www.w3.org/2000/svg" version="1.1" xmlns:xlink="http://www.w3.org/1999/xlink" width="1000" height="1000"><g><g transform="matrix(0.48828125,0,0,0.48828125,0,0)"><svg xmlns="http://www.w3.org/2000/svg" width="2048" height="2048" viewBox="0 0 2048 2048" fill="none"><rect width="2048" height="2048" rx="420" fill="#500712"></rect><path d="M427 427V1621H1621V427H427ZM1492.81 1490.09H560.176V557.46C1075.24 557.46 1492.81 975.027 1492.81 1490.09Z" fill="#F0DDCB"></path></svg></g></g></svg></g><g id="dark-icon"><svg xmlns="http://www.w3.org/2000/svg" version="1.1" xmlns:xlink="http://www.w3.org/1999/xlink" width="1000" height="1000"><g><g transform="matrix(0.48828125,0,0,0.48828125,0,0)"><svg xmlns="http://www.w3.org/2000/svg" width="2048" height="2048" viewBox="0 0 2048 2048" fill="none"><rect width="2048" height="2048" rx="420" fill="#F0DDCB"></rect><path d="M427 427V1621H1621V427H427ZM1492.81 1490.09H560.176V557.46C1075.24 557.46 1492.81 975.027 1492.81 1490.09Z" fill="#500712"></path></svg></g></g></svg></g></svg>